<?xml version="1.0" encoding="utf-8"?>
<!-- Generator: Adobe Illustrator 27.0.1, SVG Export Plug-In . SVG Version: 6.00 Build 0)  -->
<svg version="1.1" id="Layer_1" xmlns="http://www.w3.org/2000/svg" xmlns:xlink="http://www.w3.org/1999/xlink" x="0px" y="0px"
	 viewBox="0 0 50 50" style="enable-background:new 0 0 50 50;" xml:space="preserve">
<style type="text/css">
	.st0{fill:#035910;}
</style>
<g id="GJapec.tif_00000153676403011609033790000017854932468922614198_">
	<g>
		<path class="st0" d="M3.7,25.8c0-0.6,0-1.2,0-1.9c0-0.1,0-0.2,0-0.2C3.8,22.8,3.8,21.9,4,21c1-5.2,3.4-9.5,7.5-12.9
			c5.2-4.3,11.2-5.9,17.8-4.7c5.2,0.9,9.5,3.4,12.9,7.5c4.3,5.2,5.9,11.2,4.7,17.8c-0.9,5.2-3.4,9.5-7.5,12.9
			c-3.4,2.9-7.3,4.5-11.8,5c-0.4,0-0.9,0.1-1.3,0.1c-0.6,0-1.2,0-1.9,0c-0.1,0-0.2,0-0.2,0c-0.9-0.1-1.8-0.2-2.7-0.3
			c-5.2-1-9.5-3.5-12.9-7.5c-2.8-3.4-4.5-7.3-4.9-11.7C3.7,26.7,3.7,26.2,3.7,25.8z M25.5,38.1c1.3,0,2.6,0,3.9,0
			c1.2,0,2.4,0,3.5-0.3c3-0.7,4.9-2.5,5.6-5.5c0.3-1.2,0.3-2.5,0.3-3.7c0-2.5,0-5.1,0-7.6c0-1.2,0-2.4-0.3-3.6
			c-0.6-2.8-2.3-4.7-5.1-5.5c-1.1-0.3-2.3-0.4-3.5-0.4c-2.9,0-5.9,0-8.8,0c-1,0-2,0.1-3,0.3c-2.8,0.6-4.6,2.3-5.4,5
			c-0.3,1.2-0.4,2.4-0.4,3.5c0,3,0,6,0,8.9c0,1,0.1,2,0.3,3c0.7,3,2.5,4.8,5.5,5.5c1.2,0.3,2.5,0.3,3.7,0.3
			C22.9,38.1,24.2,38.1,25.5,38.1z"/>
		<path class="st0" d="M14.5,24.8c0-1.9,0.1-3.7,0.1-5.6c0-0.7,0.1-1.4,0.4-2.1c0.6-1.6,1.7-2.6,3.4-3c0.8-0.2,1.5-0.2,2.3-0.2
			c2,0,3.9-0.1,5.9-0.1c1.5,0,3,0,4.5,0.1c0.9,0,1.7,0.2,2.5,0.5c1.4,0.6,2.2,1.8,2.6,3.3c0.2,0.8,0.2,1.6,0.2,2.4
			c0,3.1,0,6.2,0,9.3c0,0.9-0.1,1.8-0.3,2.6c-0.5,1.9-1.8,3.1-3.8,3.4c-0.7,0.1-1.4,0.2-2.1,0.2c-3.2,0-6.4,0-9.5,0
			c-0.9,0-1.7-0.1-2.5-0.3c-1.9-0.5-3-1.8-3.4-3.7c-0.3-1.3-0.2-2.6-0.2-4C14.5,26.7,14.5,25.7,14.5,24.8
			C14.5,24.8,14.5,24.8,14.5,24.8z M18.6,24.8c0,3.8,3,6.8,6.8,6.9c3.8,0,6.9-3,6.9-6.8c0-3.8-3.1-6.8-6.9-6.9
			C21.7,17.9,18.6,21,18.6,24.8z M32.6,19.3c0.9,0,1.6-0.8,1.6-1.6c0-0.9-0.8-1.6-1.6-1.6c-0.9,0-1.6,0.8-1.6,1.6
			C31,18.6,31.8,19.3,32.6,19.3z"/>
		<path class="st0" d="M21,24.8c0-2.5,2-4.5,4.5-4.5c2.5,0,4.4,2,4.4,4.5c0,2.5-2,4.5-4.5,4.4C23,29.2,21,27.2,21,24.8z"/>
	</g>
</g>
</svg>
