<?xml version="1.0" encoding="utf-8"?>
<!-- Generator: Adobe Illustrator 27.0.1, SVG Export Plug-In . SVG Version: 6.00 Build 0)  -->
<svg version="1.1" id="Layer_1" xmlns="http://www.w3.org/2000/svg" xmlns:xlink="http://www.w3.org/1999/xlink" x="0px" y="0px"
	 viewBox="0 0 50 50" style="enable-background:new 0 0 50 50;" xml:space="preserve">
<g id="_x31_dYKAY_00000116222411886558918420000012785445334622797745_">
	<g>
		<path d="M25.3,28.9c1-1,1.9-1.9,2.8-2.8c1.8-1.8,3.7-3.7,5.5-5.5c0.9-0.9,2.1-0.6,2.7,0.2c0.5,0.7,0.4,1.6-0.2,2.2
			c-1.3,1.3-2.5,2.5-3.8,3.8c-1.9,1.9-3.8,3.8-5.7,5.7c-0.8,0.8-1.8,0.8-2.6,0c-3.1-3.1-6.2-6.2-9.4-9.3c-0.8-0.7-0.7-1.7-0.4-2.3
			c0.6-0.9,1.9-1.1,2.7-0.3c1.1,1.1,2.2,2.2,3.3,3.3c1.6,1.6,3.3,3.3,4.9,4.9C25.2,28.8,25.2,28.9,25.3,28.9z"/>
	</g>
</g>
</svg>
