<?xml version="1.0" encoding="utf-8"?>
<!-- Generator: Adobe Illustrator 27.0.1, SVG Export Plug-In . SVG Version: 6.00 Build 0)  -->
<svg version="1.1" id="Layer_1" xmlns="http://www.w3.org/2000/svg" xmlns:xlink="http://www.w3.org/1999/xlink" x="0px" y="0px"
	 viewBox="0 0 50 50" style="enable-background:new 0 0 50 50;" xml:space="preserve">
<style type="text/css">
	.st0{fill:#FFFFFF;}
</style>
<g>
	<g>
		<g>
			<path class="st0" d="M24.8,24.6c-1.6-1.3-0.7-1.2-1.2-1.8c0-0.1-0.1-0.1,0-0.2C26.3,15.6,25,9,18,8.1c-0.1,0-0.2,0-0.2,0.1
				c-1.7,4,1.1,8.4,3.9,9.5c0.1,0,0.2,0,0.3-0.1c0.3-1.6,0.1-3.5-0.8-4.7c-0.1-0.2-0.4,0-0.3,0.2c0,0,0.1,0.1,0.1,0.1c0,0,0,0,0,0
				c0.3,0.7,0.4,1.8,0.3,2.6l0,0.2c0,0.1-0.2,0.2-0.3,0.1l-0.2-0.1c-2.2-1.6-3-4.3-2.2-6.9c0-0.1,0.1-0.2,0.2-0.1
				c0.2,0.1,0.4,0.1,0.7,0.2c4.7,1.7,5.6,6.8,3.7,11c0,0.1-0.1,0.1-0.2,0.1c-0.8-0.2-1.1-0.3-1.1-0.3c-3.3-2.1-8.9-7-5.4-14.1
				C16.5,6,16.6,6,16.7,6c6.7-0.2,10.7,4.6,10.3,11.2c-0.2,2.8-0.9,5.1-1.9,7.4C25,24.7,24.9,24.7,24.8,24.6z"/>
		</g>
		<g>
			<path class="st0" d="M25,24.5c-0.9-1.9-1-1-1.4-1.6c0-0.1-0.1-0.1-0.2-0.1c-7.6,0.9-13.6-2-12.7-9c0-0.1,0.1-0.2,0.2-0.2
				c4.3-0.6,7.8,3.2,8.3,6.2c0,0.1-0.1,0.2-0.2,0.2c-1.7-0.1-3.4-0.7-4.4-1.9c-0.2-0.2,0.1-0.4,0.3-0.2c0,0,0.1,0.1,0.1,0.1
				c0,0,0,0,0,0c0.6,0.4,1.7,0.9,2.4,1l0.2,0c0.1,0,0.2-0.1,0.2-0.3l-0.1-0.2c-1-2.5-3.4-4-6.1-3.9c-0.1,0-0.2,0.1-0.2,0.2
				c0,0.2,0,0.5,0,0.7c0.4,5,5.2,7.2,9.7,6.4c0.1,0,0.2-0.1,0.2-0.2c0-0.8,0-1.1,0-1.1c-1.1-3.9-4.6-10.4-12.2-8.8
				C9,11.8,9,11.9,9,11.9c-1.9,6.4,1.7,11.5,8.3,12.8c2.7,0.5,5.2,0.4,7.6,0C25,24.7,25,24.6,25,24.5z"/>
		</g>
	</g>
	<g>
		<g>
			<path class="st0" d="M25.5,24.8c1.8-0.9,1-1,1.6-1.4c0.1,0,0.1-0.1,0.1-0.2c-1-7.6,1.8-13.6,8.9-12.8c0.1,0,0.2,0.1,0.2,0.2
				c0.7,4.3-3.1,7.9-6,8.3c-0.1,0-0.2-0.1-0.2-0.2c0.1-1.7,0.7-3.4,1.9-4.4c0.2-0.2,0.4,0.1,0.3,0.3c0,0-0.1,0.1-0.1,0.1
				c0,0,0,0,0,0c-0.4,0.6-0.9,1.7-0.9,2.4l0,0.2c0,0.1,0.1,0.2,0.3,0.2l0.2-0.1c2.5-1.1,3.9-3.5,3.8-6.1c0-0.1-0.1-0.2-0.2-0.2
				c-0.2,0-0.5,0-0.7,0c-5,0.5-7.1,5.3-6.3,9.8c0,0.1,0.1,0.2,0.2,0.2c0.8,0,1.1,0,1.1,0c3.7-1.2,10.4-4.7,8.6-12.3
				c0-0.1-0.1-0.1-0.1-0.1c-6.4-1.8-11.5,1.9-12.7,8.4c-0.5,2.7-0.3,5.2,0.1,7.6C25.2,24.7,25.4,24.8,25.5,24.8z"/>
		</g>
		<g>
			<path class="st0" d="M25.3,24.6c1.3-1.6,1.2-0.8,1.7-1.2c0.1,0,0.1-0.1,0.2,0c7.2,2.7,13.7,1.3,14.5-5.7c0-0.1,0-0.2-0.1-0.2
				c-4.1-1.6-8.4,1.3-9.5,4c0,0.1,0,0.2,0.1,0.3c1.7,0.3,3.5,0.1,4.7-0.8c0.2-0.1,0-0.4-0.2-0.3c0,0-0.1,0.1-0.1,0.1c0,0,0,0,0,0
				c-0.7,0.3-1.8,0.5-2.6,0.3l-0.2,0c-0.1,0-0.2-0.2-0.1-0.3l0.1-0.2c1.6-2.2,4.3-3,6.8-2.3c0.1,0,0.2,0.1,0.1,0.2
				c-0.1,0.2-0.1,0.4-0.2,0.7c-1.6,4.8-6.8,5.7-11,3.9c-0.1,0-0.1-0.1-0.1-0.2c0.1-0.8,0.3-1.1,0.3-1.1c2-3.5,6.9-9,14-5.6
				c0.1,0,0.1,0.1,0.1,0.2c0.3,6.7-4.4,10.7-11.1,10.5c-2.8-0.1-5.1-0.9-7.4-1.8C25.3,24.8,25.2,24.7,25.3,24.6z"/>
		</g>
	</g>
	<g>
		<g>
			<path class="st0" d="M25.6,24.9c1.6,1.3,0.7,1.2,1.2,1.8c0,0.1,0.1,0.1,0,0.2C24,34,25.3,40.5,32.3,41.4c0.1,0,0.2,0,0.2-0.1
				c1.7-4-1.1-8.4-3.9-9.5c-0.1,0-0.2,0-0.3,0.1c-0.3,1.6-0.1,3.5,0.8,4.7c0.1,0.2,0.4,0,0.3-0.2c0,0-0.1-0.1-0.1-0.1c0,0,0,0,0,0
				c-0.3-0.7-0.4-1.8-0.3-2.6l0-0.2c0-0.1,0.2-0.2,0.3-0.1l0.2,0.1c2.2,1.6,3,4.3,2.2,6.9c0,0.1-0.1,0.2-0.2,0.1
				c-0.2-0.1-0.4-0.1-0.7-0.2c-4.7-1.7-5.6-6.8-3.7-11c0-0.1,0.1-0.1,0.2-0.1c0.8,0.2,1.1,0.3,1.1,0.3c3.3,2.1,8.9,7,5.4,14.1
				c0,0.1-0.1,0.1-0.2,0.1C27,43.8,23,39,23.4,32.4c0.2-2.8,0.5-8,1.9-7.4C25.4,25,25.5,24.8,25.6,24.9z"/>
		</g>
		<g>
			<path class="st0" d="M25.4,25.1c-0.7-0.1-0.6-1.7,1.4,1.6c0,0.1,0.1,0.1,0.2,0.1c7.6-0.9,13.6,2,12.7,9c0,0.1-0.1,0.2-0.2,0.2
				c-4.3,0.6-7.8-3.2-8.3-6.2c0-0.1,0.1-0.2,0.2-0.2c1.7,0.1,3.4,0.7,4.4,1.9c0.2,0.2-0.1,0.4-0.3,0.2c0,0-0.1-0.1-0.1-0.1
				c0,0,0,0,0,0c-0.6-0.4-1.7-0.9-2.4-1l-0.2,0c-0.1,0-0.2,0.1-0.2,0.3l0.1,0.2c1,2.5,3.4,4,6.1,3.9c0.1,0,0.2-0.1,0.2-0.2
				c0-0.2,0-0.5,0-0.7c-0.4-5-5.2-7.2-9.7-6.4c-0.1,0-0.2,0.1-0.2,0.2c0,0.8,0,1.1,0,1.1c1.1,3.9,4.6,10.4,12.2,8.8
				c0.1,0,0.1-0.1,0.1-0.1c1.9-6.4-1.7-11.5-8.3-12.8c-2.7-0.5-8.1-0.8-7.6,0C25.6,24.9,25.5,25.1,25.4,25.1z"/>
		</g>
	</g>
	<g>
		<g>
			<path class="st0" d="M24.8,24.8c-1.8,0.9-1,1-1.6,1.4c-0.1,0-0.1,0.1-0.1,0.2c1,7.6-1.8,13.6-8.9,12.8c-0.1,0-0.2-0.1-0.2-0.2
				c-0.7-4.3,3.1-7.9,6-8.3c0.1,0,0.2,0.1,0.2,0.2c-0.1,1.7-0.7,3.4-1.9,4.4c-0.2,0.2-0.4-0.1-0.3-0.3c0,0,0.1-0.1,0.1-0.1
				c0,0,0,0,0,0c0.4-0.6,0.9-1.7,0.9-2.4l0-0.2c0-0.1-0.1-0.2-0.3-0.2l-0.2,0.1c-2.5,1.1-3.9,3.5-3.8,6.1c0,0.1,0.1,0.2,0.2,0.2
				c0.2,0,0.5,0,0.7,0c5-0.5,7.1-5.3,6.3-9.8c0-0.1-0.1-0.2-0.2-0.2c-0.8,0-1.1,0-1.1,0c-3.7,1.2-10.4,4.7-8.6,12.3
				c0,0.1,0.1,0.1,0.1,0.1c6.4,1.8,11.5-1.9,12.7-8.4c0.5-2.7,0.8-5.7,0.4-8.1C25.6,24.3,25,24.7,24.8,24.8z"/>
		</g>
		<g>
			<path class="st0" d="M25,25c-0.8,1.9-1.2,0.8-1.7,1.2c-0.1,0-0.1,0.1-0.2,0C15.9,23.5,9.4,25,8.6,32c0,0.1,0,0.2,0.1,0.2
				c4.1,1.6,8.4-1.3,9.5-4c0-0.1,0-0.2-0.1-0.3c-1.7-0.3-3.5-0.1-4.7,0.8c-0.2,0.1,0,0.4,0.2,0.3c0,0,0.1-0.1,0.1-0.1c0,0,0,0,0,0
				c0.7-0.3,1.8-0.5,2.6-0.3l0.2,0c0.1,0,0.2,0.2,0.1,0.3l-0.1,0.2c-1.6,2.2-4.3,3-6.8,2.3c-0.1,0-0.2-0.1-0.1-0.2
				c0.1-0.2,0.1-0.4,0.2-0.7c1.6-4.8,6.8-5.7,11-3.9c0.1,0,0.1,0.1,0.1,0.2c-0.1,0.8-0.3,1.1-0.3,1.1c-2,3.5-6.9,9-14,5.6
				c-0.1,0-0.1-0.1-0.1-0.2c-0.3-6.7,4.4-10.8,11.1-10.5c2.9,0.2,18.3,3.8,7.4,1.8C24.8,24.7,25.3,24.2,25,25z"/>
		</g>
	</g>
</g>
</svg>
