<?xml version="1.0" encoding="utf-8"?>
<!-- Generator: Adobe Illustrator 27.0.1, SVG Export Plug-In . SVG Version: 6.00 Build 0)  -->
<svg version="1.1" id="Layer_1" xmlns="http://www.w3.org/2000/svg" xmlns:xlink="http://www.w3.org/1999/xlink" x="0px" y="0px"
	 viewBox="0 0 50 50" style="enable-background:new 0 0 50 50;" xml:space="preserve">
<g id="dAnXNf.tif">
	<g>
		<path d="M45.6,24.6c0,0.4,0,0.9,0,1.3c0,0,0,0,0,0.1c0,1.1-0.2,2.1-0.4,3.2c-0.4,1.9-1,3.7-2,5.5c-1.2,2.2-2.7,4.1-4.6,5.7
			c-2.1,1.8-4.4,3-7,3.8c-1.9,0.6-3.9,0.9-5.9,0.9c-0.6,0-1.2,0-1.9-0.1c-0.9-0.1-1.8-0.2-2.8-0.5c-1.6-0.4-3.2-1-4.7-1.8
			c-0.1,0-0.1,0-0.2,0c-0.8,0.2-1.7,0.4-2.5,0.7c-2.6,0.7-5.2,1.4-7.7,2c-0.1,0-0.1,0-0.2,0c0,0,0-0.1,0-0.1
			c0.2-0.6,0.3-1.2,0.5-1.9c0.7-2.7,1.5-5.5,2.2-8.2c0-0.1,0-0.1,0-0.2c-0.4-0.7-0.8-1.5-1.1-2.3c-0.6-1.4-1-2.9-1.2-4.4
			C6.1,27.3,6,26.2,6,25.1c0-0.9,0.1-1.8,0.2-2.7C6.4,21.3,6.7,20.1,7,19c0.7-2.1,1.7-4,3-5.7c0.9-1.2,2-2.4,3.2-3.4
			c1.2-1,2.6-1.9,4-2.6c1.8-0.9,3.8-1.5,5.8-1.7c1.1-0.2,2.2-0.2,3.4-0.2c1,0,2.1,0.2,3.1,0.3c1.8,0.4,3.6,1,5.3,1.8
			c2,1,3.8,2.4,5.4,4c1.5,1.5,2.7,3.3,3.6,5.2c1.1,2.3,1.7,4.8,1.8,7.3C45.6,24.3,45.6,24.5,45.6,24.6z M10.6,40.7
			c0.1,0,0.2-0.1,0.3-0.1c1.9-0.5,3.9-1,5.8-1.5c0,0,0.1,0,0.2,0c0.1,0.1,0.3,0.1,0.4,0.2c0.8,0.5,1.6,0.9,2.5,1.2
			c2.1,0.8,4.3,1.2,6.6,1.1c0.8,0,1.6-0.1,2.4-0.2c1.7-0.3,3.2-0.8,4.7-1.6c2.1-1.1,4-2.7,5.4-4.6c1.1-1.5,2-3.1,2.6-4.8
			c0.6-1.7,0.8-3.5,0.8-5.4c0-0.7-0.1-1.4-0.2-2c-0.1-1-0.3-1.9-0.7-2.8c-0.5-1.6-1.2-3-2.2-4.4c-1.1-1.6-2.5-3-4.2-4.1
			c-1.3-0.9-2.7-1.6-4.2-2.1c-1.7-0.6-3.5-0.8-5.3-0.8c-1.1,0-2.2,0.1-3.2,0.4c-1.5,0.3-2.9,0.8-4.3,1.6c-1.6,0.8-2.9,1.9-4.2,3.2
			c-0.7,0.7-1.3,1.4-1.8,2.2c-0.9,1.3-1.5,2.7-2,4.1c-0.5,1.5-0.7,3-0.8,4.6c0,0.7,0,1.4,0.1,2.1c0.1,1.1,0.3,2.2,0.7,3.2
			c0.3,0.9,0.6,1.7,1,2.5c0.3,0.7,0.7,1.3,1.1,1.9c0,0.1,0.1,0.1,0,0.2c-0.4,1.3-0.7,2.6-1.1,4C11,39.4,10.8,40.1,10.6,40.7z"/>
		<path d="M19.3,16.2c0.2,0,0.4,0,0.6,0c0.3,0,0.5,0.1,0.7,0.3c0.1,0.2,0.2,0.4,0.3,0.6c0.5,1.1,0.9,2.3,1.4,3.4
			c0,0.1,0.1,0.2,0.1,0.3c0.1,0.3,0.1,0.5,0,0.8c-0.2,0.4-0.4,0.8-0.7,1.1c-0.2,0.2-0.4,0.4-0.6,0.7c-0.3,0.3-0.3,0.6-0.1,0.9
			c0.6,1,1.2,1.9,2,2.7c1,1,2,1.8,3.3,2.5c0.5,0.3,1.1,0.5,1.6,0.7c0.4,0.2,0.6,0.1,0.9-0.2c0.5-0.6,1-1.3,1.6-1.9
			c0-0.1,0.1-0.1,0.1-0.2c0.2-0.2,0.3-0.2,0.6-0.2c0.3,0.1,0.6,0.2,0.9,0.4c1,0.5,2,1,3,1.4c0.2,0.1,0.4,0.2,0.6,0.3
			c0.2,0.1,0.3,0.3,0.3,0.5c0,0.8-0.1,1.5-0.4,2.2c-0.1,0.3-0.4,0.6-0.7,0.8c-0.7,0.6-1.5,1.1-2.4,1.3c-0.4,0.1-0.8,0.1-1.2,0.1
			c-0.9,0-1.7-0.1-2.5-0.4c-0.9-0.3-1.9-0.7-2.8-1.1c-1.1-0.5-2.1-1.1-3-1.9c-0.8-0.6-1.6-1.3-2.3-2c-1-1-1.9-2.2-2.8-3.3
			c-0.4-0.5-0.7-1-1-1.6c-0.4-0.7-0.7-1.5-0.9-2.3c-0.3-1.3-0.2-2.6,0.4-3.9c0.3-0.6,0.7-1.1,1.1-1.6c0.3-0.3,0.7-0.6,1.2-0.7
			C18.8,16.1,19.1,16.2,19.3,16.2z"/>
	</g>
</g>
</svg>
