<?xml version="1.0" encoding="utf-8"?>
<!-- Generator: Adobe Illustrator 27.0.1, SVG Export Plug-In . SVG Version: 6.00 Build 0)  -->
<svg version="1.1" id="Layer_1" xmlns="http://www.w3.org/2000/svg" xmlns:xlink="http://www.w3.org/1999/xlink" x="0px" y="0px"
	 viewBox="0 0 50 50" style="enable-background:new 0 0 50 50;" xml:space="preserve">
<g id="IMkGpv_00000037674361780606220060000004222558940765346746_">
	<g>
		<path d="M23.3,45.7c-0.1-0.2-0.2-0.4-0.3-0.7c-1-2.4-2-4.7-3.1-7.1c-2.2-5-4.4-9-6.6-14c-0.6-1.4-1.2-2.8-1.6-4.2
			c-0.7-2.9-0.4-5.8,0.9-8.5c2-4.2,5.3-6.8,9.8-7.7c5.8-1.2,11.9,1.7,14.7,7c1.2,2.3,1.7,4.8,1.6,7.3c-0.1,1.8-0.7,3.4-1.5,5
			c-1,2-2.2,3.9-3.4,5.9c-3.4,5.5-6.6,10.2-9.7,15.8C23.8,45,23.6,45.3,23.3,45.7C23.4,45.7,23.4,45.7,23.3,45.7z M24.5,26
			c5,0.3,9.3-3.6,9.6-8.6c0.3-5-3.6-9.3-8.7-9.6c-4.9-0.3-9.2,3.7-9.5,8.6C15.7,21.4,19.5,25.7,24.5,26z"/>
	</g>
</g>
</svg>
